<svg width="257" height="256" viewBox="0 0 257 256" fill="none" xmlns="http://www.w3.org/2000/svg">
<path d="M235.278 172.075C232.947 163.824 222.943 157.109 222.943 157.109L206.149 175.767C206.149 175.767 214.963 184.518 221.743 185.752C226.563 186.629 230.412 185.101 233.46 181.289C235.845 178.308 236.275 175.605 235.278 172.075Z" fill="#FF879E" stroke="#101010" stroke-width="6" stroke-linecap="round" stroke-linejoin="round"/>
<mask id="path-2-outside-1_75_34" maskUnits="userSpaceOnUse" x="8.23833" y="48.3554" width="84.1605" height="103.003" fill="black">
<rect fill="white" x="8.23833" y="48.3554" width="84.1605" height="103.003"/>
<path d="M22.3922 108.471C19.6222 117.119 24.2935 131.049 32.9994 133.801C40.4505 136.156 55.5827 135.282 61.5274 129.561C69.2376 128.061 73.7058 98.1076 76.3005 90.0071C79.0705 81.3593 70.7889 65.95 62.083 63.1981C53.377 60.4465 44.0733 65.2269 41.3032 73.8748C40.3384 76.8878 41.2485 84.2135 43.2123 92.5977C34.4846 95.0527 24.3945 102.22 22.3922 108.471Z"/>
</mask>
<path d="M22.3922 108.471C19.6222 117.119 24.2935 131.049 32.9994 133.801C40.4505 136.156 55.5827 135.282 61.5274 129.561C69.2376 128.061 73.7058 98.1076 76.3005 90.0071C79.0705 81.3593 70.7889 65.95 62.083 63.1981C53.377 60.4465 44.0733 65.2269 41.3032 73.8748C40.3384 76.8878 41.2485 84.2135 43.2123 92.5977C34.4846 95.0527 24.3945 102.22 22.3922 108.471Z" fill="#2A92F3"/>
<path d="M22.3922 108.471L16.6782 106.64L16.6783 106.64L22.3922 108.471ZM32.9994 133.801L31.1913 139.522L31.1912 139.522L32.9994 133.801ZM61.5274 129.561L57.3667 125.238L58.643 124.009L60.3818 123.671L61.5274 129.561ZM76.3005 90.0071L70.5865 88.1769L70.5865 88.1768L76.3005 90.0071ZM62.083 63.1981L63.8912 57.477L63.8914 57.4771L62.083 63.1981ZM41.3032 73.8748L35.589 72.0451L35.5892 72.0445L41.3032 73.8748ZM43.2123 92.5977L49.0542 91.2293L50.3635 96.819L44.837 98.3735L43.2123 92.5977ZM22.3922 108.471L28.1062 110.301C27.2413 113.001 27.4387 117.2 28.9839 121.171C30.5627 125.228 32.8975 127.476 34.8077 128.08L32.9994 133.801L31.1912 139.522C24.3954 137.374 20.0416 131.281 17.8008 125.523C15.5263 119.678 14.7731 112.588 16.6782 106.64L22.3922 108.471ZM32.9994 133.801L34.8076 128.08C37.4905 128.928 42.2327 129.324 47.1303 128.75C52.2184 128.154 55.8444 126.703 57.3667 125.238L61.5274 129.561L65.6882 133.884C61.2658 138.14 54.3533 139.986 48.5263 140.669C42.5089 141.374 35.9595 141.029 31.1913 139.522L32.9994 133.801ZM61.5274 129.561L60.3818 123.671C59.5465 123.834 59.3711 124.245 59.7746 123.788C60.1475 123.367 60.689 122.564 61.3372 121.244C62.6298 118.61 63.8744 114.904 65.0497 110.658C66.2101 106.467 67.2243 102.046 68.1316 98.0616C69.0019 94.2399 69.8375 90.5152 70.5865 88.1769L76.3005 90.0071L82.0145 91.8374C81.4662 93.5493 80.7702 96.6064 79.832 100.726C78.9309 104.683 77.8596 109.363 76.6148 113.86C75.3849 118.303 73.9047 122.873 72.1099 126.53C71.2144 128.355 70.1216 130.202 68.7642 131.737C67.4375 133.238 65.4359 134.913 62.673 135.45L61.5274 129.561ZM76.3005 90.0071L70.5865 88.1768C71.2414 86.1321 70.7125 81.9276 68.2002 77.2135C65.7001 72.5221 62.4459 69.6054 60.2746 68.919L62.083 63.1981L63.8914 57.4771C70.426 59.5427 75.6656 65.7066 78.7903 71.5698C81.9028 77.4103 84.1296 85.2343 82.0145 91.8374L76.3005 90.0071ZM62.083 63.1981L60.2748 68.9191C54.6906 67.1542 48.7699 70.2334 47.0172 75.7051L41.3032 73.8748L35.5892 72.0445C39.3767 60.2203 52.0634 53.7388 63.8912 57.477L62.083 63.1981ZM41.3032 73.8748L47.0174 75.7045C47.0367 75.6441 46.9333 75.9927 46.9176 76.9874C46.903 77.9062 46.9655 79.106 47.1247 80.5764C47.4427 83.5148 48.1079 87.1891 49.0542 91.2293L43.2123 92.5977L37.3705 93.966C36.353 89.622 35.5812 85.4415 35.1944 81.8677C34.8417 78.609 34.6814 74.8796 35.589 72.0451L41.3032 73.8748ZM43.2123 92.5977L44.837 98.3735C41.2627 99.3789 37.2134 101.426 33.8661 103.922C30.3223 106.563 28.5295 108.98 28.1062 110.301L22.3922 108.471L16.6783 106.64C18.2572 101.711 22.5107 97.4189 26.6944 94.3003C31.0746 91.0353 36.4342 88.2715 41.5877 86.8218L43.2123 92.5977Z" fill="#101010" mask="url(#path-2-outside-1_75_34)"/>
<path d="M139.997 54.4602C92.1705 54.4603 53.3482 93.6305 53.3481 142.013C53.3481 190.104 91.866 223 139.997 223C188.127 223 226.645 190.104 226.645 142.013C226.645 93.6304 187.823 54.4602 139.997 54.4602Z" fill="#FF879E" stroke="#101010" stroke-width="6"/>
<path d="M148.118 28.6527C147.512 27.774 146.476 27.2797 145.398 27.3704C144.248 27.4673 143.253 28.2132 142.838 29.2885L134.833 50.0353L134.698 50.4102C133.434 54.1692 134.782 58.3512 138.128 60.5848L138.469 60.8009C143.811 64.0276 153.504 69.6388 161.382 72.7987L162.139 73.0971C169.64 75.9959 180.042 78.3037 187.004 79.6653L189.76 80.1904C193.952 80.9669 198.008 78.6464 199.598 74.8095L199.744 74.434L208.138 51.3251C208.534 50.2325 208.264 49.0119 207.443 48.1919C206.621 47.3719 205.397 47.1007 204.302 47.4957L189.37 52.8785L189.122 52.9562C187.871 53.2896 186.535 52.789 185.822 51.6919L177.207 38.4346L177.056 38.2225C176.261 37.2035 174.884 36.8037 173.649 37.261L159.215 42.6025L158.957 42.6851C157.657 43.0389 156.265 42.4874 155.573 41.3113L148.232 28.8342L148.118 28.6527Z" fill="#F5BA3A" stroke="#101010" stroke-width="6" stroke-linejoin="round"/>
<circle cx="4.8846" cy="4.8846" r="4.8846" transform="matrix(-0.995385 -0.0959573 -0.0959573 0.995385 197.871 118.528)" fill="#101010"/>
<circle cx="4.8846" cy="4.8846" r="4.8846" transform="matrix(-0.995385 -0.0959573 -0.0959573 0.995385 166.698 120.807)" fill="#101010"/>
<path d="M168.942 145.571C168.942 145.571 171.584 152.711 180.686 150.844C187.977 149.348 188.785 143.046 188.785 143.046" stroke="#101010" stroke-width="6" stroke-linecap="round" stroke-linejoin="round"/>
<path d="M132.67 171.162C132.67 171.162 131.162 177.424 127.266 181.074C124.548 183.62 122.141 184.387 118.981 184.094C114.941 183.719 112.427 181.492 111.477 177.209C110.141 171.185 113.852 165.828 113.852 165.828" stroke="#1B1B1B" stroke-width="6" stroke-linecap="round" stroke-linejoin="round"/>
</svg>
